/* XPM */
static char *c033d922ad6f426ae458e41532844642X5WI7cx5cPMNkQ3b[] = {
/* columns rows colors chars-per-pixel */
"24 24 4 1 ",
"  c #0AFF0A",
". c #800034",
"X c #FF8F00",
"o c white",
/* pixels */
"                        ",
"                        ",
"                        ",
"    ..    ..    ..    ..",
".  .XX.  .XX.  .XX.  .XX",
"X..XXXX..XXXX..XXXX..XXX",
"XXXXXXXXXXXXXXXXXXXXXXXX",
"XXXXXXXXXXX.XXXXXXXXXXXX",
"XXXXXXXXXXXX.XXXXX.XXXXX",
"XXXXX.XXXXXX.XXXXXX.XXXX",
"XXXXXX.XXXX.XXXXXX.XXXX.",
".XXXXX.XXXXXXXXXXXXXXXXX",
".XXXX.XXXXXXX.XXXXXXXXXX",
"XXXXXXXXXXXXXX.XXXXXXXX.",
"XXXXXXXXXXXXXX.XXXXXXXXX",
"XXXXXXXXXXXXX.XXXXXXXXXX",
"XXXX.XXXXXXXXXXXXXXX.XXX",
"XXXXX.XXXXXXXXXXXXXXX.XX",
"XXXX.XXXX.XXXXXXXXXX.XXX",
"XXXXXXXXXX.XXXXXXXXXXXXX",
"XXXXXXXXXX.XXXXX.XXXXXXX",
"XXXXXXXXX.XXXXXXX.XXXXXX",
"XXXXXXXXXXXXXXXX.XXXXXX.",
".XXXX.XXXXXXXXXXXXXXXXXX"
};
