/* XPM */
static char *dbb357be54fd4896d3a1130a5259d79af5PAkXUiauFoPBYs[] = {
/* columns rows colors chars-per-pixel */
"24 24 7 1 ",
"  c #0DFFFF",
". c #260A34",
"X c #0AFF0A",
"o c #800034",
"O c #007062",
"+ c #FF8F00",
"@ c white",
/* pixels */
"                        ",
"                        ",
"                        ",
"                        ",
"                        ",
"                        ",
"                        ",
"                        ",
"                        ",
"                        ",
"                        ",
"                        ",
"                   ..   ",
"          ....    .XX.  ",
"        ..oooo.. .XXOX. ",
"       .oo.oo.oo..XXXX. ",
"    . .oooo..oooo.XXX.  ",
"   .X...oo.oo.oo.XXX.   ",
"    .X.+..........X.    ",
"     ...++o+++o++..     ",
"      .X..........      ",
"     .XX.O..O..XXX.     ",
"    .XX.O. .OO..XX.     ",
"   .XX.O.   .O. .XX.    "
};
